<?xml version="1.0" encoding="iso-8859-1"?>
<!-- Generator: Adobe Illustrator 19.0.0, SVG Export Plug-In . SVG Version: 6.00 Build 0)  -->
<svg version="1.1" id="Capa_1" xmlns="http://www.w3.org/2000/svg" xmlns:xlink="http://www.w3.org/1999/xlink" x="0px" y="0px"
	 viewBox="0 0 480 480" style="enable-background:new 0 0 480 480;" xml:space="preserve">
<path style="fill:#FC605B;" d="M472,248H8c-4.8,0-8-3.2-8-8s3.2-8,8-8h464c4.8,0,8,3.2,8,8C480,244.8,476.8,248,472,248z"/>
<path style="fill:#FECC02;" d="M440,416c-1.6,0-3.2-0.8-4-0.8c-40.8-24.8-60.8-95.2-82.4-169.6C328,156,301.6,64,240,64
	s-88,92-113.6,181.6C104.8,320,84.8,389.6,44,415.2c-4,2.4-8.8,1.6-11.2-2.4s-1.6-8.8,2.4-11.2c0,0,0.8,0,0.8-0.8
	c35.2-21.6,56-92,75.2-160C138.4,146.4,166.4,48,240,48s101.6,98.4,128.8,192.8c19.2,68,40,138.4,75.2,160c4,2.4,4.8,7.2,2.4,11.2
	C445.6,414.4,442.4,416,440,416z"/>
<path style="fill:#4CD5E7;" d="M472,464h-24v-16c0-4.8-3.2-8-8-8s-8,3.2-8,8v16h-32v-16c0-4.8-3.2-8-8-8s-8,3.2-8,8v16h-32v-16
	c0-4.8-3.2-8-8-8s-8,3.2-8,8v16h-32v-16c0-4.8-3.2-8-8-8s-8,3.2-8,8v16h-32v-16c0-4.8-3.2-8-8-8s-8,3.2-8,8v16h-32v-16
	c0-4.8-3.2-8-8-8s-8,3.2-8,8v16h-32v-16c0-4.8-3.2-8-8-8s-8,3.2-8,8v16h-32v-16c0-4.8-3.2-8-8-8s-8,3.2-8,8v16H64v-16
	c0-4.8-3.2-8-8-8s-8,3.2-8,8v16H16V8c0-4.8-3.2-8-8-8S0,3.2,0,8v464c0,4.8,3.2,8,8,8h464c4.8,0,8-3.2,8-8S476.8,464,472,464z"/>
<g>
</g>
<g>
</g>
<g>
</g>
<g>
</g>
<g>
</g>
<g>
</g>
<g>
</g>
<g>
</g>
<g>
</g>
<g>
</g>
<g>
</g>
<g>
</g>
<g>
</g>
<g>
</g>
<g>
</g>
</svg>
