<?xml version="1.0" encoding="iso-8859-1"?>
<!-- Generator: Adobe Illustrator 19.0.0, SVG Export Plug-In . SVG Version: 6.00 Build 0)  -->
<svg version="1.1" id="Capa_1" xmlns="http://www.w3.org/2000/svg" xmlns:xlink="http://www.w3.org/1999/xlink" x="0px" y="0px"
	 viewBox="0 0 512 512" style="enable-background:new 0 0 512 512;" xml:space="preserve">
<polygon style="fill:#F9F5F2;" points="324.267,384 324.267,358.4 187.734,358.4 187.734,384 256.001,452.267 "/>
<path style="fill:#C84339;" d="M472.406,437.931c-6.835-31.445-34.637-53.888-66.816-53.931h-81.323l-68.267,68.267L187.734,384
	h-81.323c-32.179,0.043-59.981,22.485-66.816,53.931l-13.995,65.536h460.8L472.406,437.931z"/>
<path style="fill:#A05D35;" d="M358.401,153.6v195.584c21.137-12.143,34.159-34.671,34.133-59.051V145.067
	c0-75.409-61.124-136.533-136.533-136.533S119.467,69.658,119.467,145.067v145.067c-0.026,24.38,12.996,46.908,34.133,59.051V153.6
	H358.401z"/>
<path style="fill:#F9F5F2;" d="M153.601,153.6v170.667c0,18.85,15.283,34.133,34.133,34.133h136.533
	c18.85,0,34.133-15.283,34.133-34.133V153.6H153.601z"/>
<g>
	<path style="fill:#231F20;" d="M480.743,436.113c-7.817-35.285-39.014-60.459-75.153-60.646h-72.789v-9.387
		c7.526-1.587,14.49-5.188,20.13-10.419c0.367,0.341,0.768,0.649,1.195,0.913c1.297,0.751,2.765,1.152,4.267,1.152
		c1.493,0,2.97-0.384,4.267-1.126c23.748-13.713,38.391-39.04,38.409-66.466V145.067C401.067,64.947,336.12,0,256.001,0
		S110.934,64.947,110.934,145.067v145.067c0.017,27.418,14.652,52.745,38.4,66.458c2.637,1.527,5.897,1.527,8.533,0
		c0.427-0.265,0.828-0.572,1.195-0.913c5.649,5.231,12.604,8.823,20.139,10.402v9.387h-72.789
		c-36.147,0.188-67.354,25.387-75.162,60.681l-13.995,65.536c-0.981,4.608,1.954,9.139,6.562,10.129
		c0.589,0.128,1.186,0.188,1.783,0.188h460.8c4.71,0,8.533-3.823,8.533-8.533c0-0.597-0.06-1.195-0.188-1.783L480.743,436.113z
		 M196.267,366.933h119.467v13.534l-59.733,59.733l-59.733-59.733V366.933z M145.067,331.947
		c-10.94-11.17-17.067-26.18-17.067-41.813V145.067c0-70.69,57.31-128,128-128s128,57.31,128,128v145.067
		c0,15.633-6.127,30.643-17.067,41.813V153.6c0-4.71-3.823-8.533-8.533-8.533h-204.8c-4.71,0-8.533,3.823-8.533,8.533V331.947z
		 M162.134,324.267V162.133h187.733v162.133c0,14.14-11.46,25.6-25.6,25.6H187.734C173.594,349.867,162.134,338.406,162.134,324.267
		z M408.295,494.933l-7.347-44.075l-16.828,2.816l6.878,41.259H121.003l6.878-41.259l-16.828-2.816l-7.347,44.075H36.148
		l11.785-55.194c6.084-27.46,30.353-47.053,58.479-47.206h77.79l65.766,65.766c3.328,3.328,8.738,3.328,12.066,0l65.766-65.766
		h77.79c28.117,0.154,52.386,19.729,58.47,47.181l11.793,55.219H408.295z"/>
	<circle style="fill:#231F20;" cx="307.201" cy="221.867" r="17.067"/>
	<circle style="fill:#231F20;" cx="204.801" cy="221.867" r="17.067"/>
	<path style="fill:#231F20;" d="M204.801,264.533c20.267-0.026,37.734-14.285,41.813-34.133h18.773
		c4.71,23.091,27.247,37.982,50.338,33.271c23.091-4.71,37.982-27.247,33.271-50.338s-27.247-37.982-50.338-33.271
		c-16.759,3.422-29.85,16.512-33.271,33.271h-18.773c-4.71-23.091-27.247-37.982-50.338-33.271s-37.982,27.247-33.271,50.338
		C167.058,250.266,184.534,264.533,204.801,264.533z M307.201,196.267c14.14,0,25.6,11.46,25.6,25.6c0,14.14-11.46,25.6-25.6,25.6
		s-25.6-11.46-25.6-25.6l0,0C281.601,207.727,293.061,196.267,307.201,196.267z M204.801,196.267c14.14,0,25.6,11.46,25.6,25.6
		c0,14.14-11.46,25.6-25.6,25.6s-25.6-11.46-25.6-25.6l0,0C179.201,207.727,190.661,196.267,204.801,196.267z"/>
</g>
<g>
</g>
<g>
</g>
<g>
</g>
<g>
</g>
<g>
</g>
<g>
</g>
<g>
</g>
<g>
</g>
<g>
</g>
<g>
</g>
<g>
</g>
<g>
</g>
<g>
</g>
<g>
</g>
<g>
</g>
</svg>
