<svg xmlns="http://www.w3.org/2000/svg" xmlns:xlink="http://www.w3.org/1999/xlink" xmlns:fi="http://pattern.flaticon.com/" x="0" y="0" width="1000" height="500" viewBox="0 0 1000 500"><rect x="0px" y="0px" width="100%" height="100%" opacity="1" fill="#ffffff"/><defs><g transform="matrix(0.13671875 0 0 0.13671875 315 315)" id="L1_195"><path d="m512 60h-46.614v-30h21.188v-30h-132.377v30h21.188v30h-46.614v30h42.863v335.127c0 20.93 14.363 38.568 33.751 43.576v43.297h30v-43.297c19.388-5.008 33.751-22.646 33.751-43.576v-335.127h42.864zm-106.614-30h30v30h-30zm18.751 410.127h-7.502c-8.271 0-15-6.729-15-15v-30.127h37.502v30.127c0 8.271-6.729 15-15 15zm15-75.127h-37.502v-275h37.502z"/><path d="m228.8 86.476h-1.9v-86.476h-150v86.476h-1.9c-41.355 0-75 33.645-75 75v305.524c0 24.813 20.187 45 45 45h213.8c24.813 0 45-20.187 45-45v-305.524c0-41.355-33.645-75-75-75zm-31.9 0h-30v-56.476h30zm-90-56.476h30v56.476h-30zm-31.9 86.476h153.8c24.813 0 45 20.187 45 45v25h-243.8v-25c0-24.813 20.187-45 45-45zm198.8 100.001v165.523h-243.8v-165.523zm-15 265.523h-213.8c-8.271 0-15-6.729-15-15v-55h243.8v55c0 8.271-6.729 15-15 15z"/><path d="m118.9 314.238h18v18h30v-18h18v-30h-18v-18h-30v18h-18z"/></g><g transform="matrix(0.10239899903535843 0 0 0.10239899903535843 62.5 150)" id="L1_196"><path d="m247.089844 111.964844v-20.820313h1.085937c4.421875 0 7.914063-4.0625 7.914063-8.480469v-74.601562c.015625-2.105469-.8125-4.128906-2.296875-5.617188-1.488281-1.488281-3.511719-2.316406-5.617188-2.300781h-203.457031c-2.074219-.003906-4.0625.835938-5.503906 2.332031-1.4375 1.492188-2.207032 3.511719-2.125 5.582032v74.601562c0 4.417969 3.210937 8.480469 7.628906 8.480469h1.371094v20.855469c0 .050781-.28125.097656-.382813.152344-.390625.195312-.816406.394531-1.203125.59375-.492187.253906-1.007812.507812-1.5.769531-.390625.210937-.789062.433593-1.179687.652343-.472657.265626-.949219.527344-1.414063.804688-.394531.230469-.78125.46875-1.167968.703125-.457032.28125-.910157.558594-1.359376.84375-.382812.25-.769531.5-1.148437.753906-.4375.292969-.871094.585938-1.300781.882813-.378906.269531-.757813.535156-1.132813.800781-.421875.304687-.84375.613281-1.257812.925781-.371094.277344-.742188.558594-1.109375.84375-.40625.316406-.8125.640625-1.214844.964844-.363281.292969-.722656.585938-1.078125.882812-.398437.332032-.789063.671876-1.179687 1.011719-.347657.304688-.699219.609375-1.042969.917969-.386719.347656-.761719.703125-1.144531 1.054688-.335938.316406-.675782.628906-1.007813.953124-.371094.363282-.738281.730469-1.105469 1.097657-.324218.328125-.648437.648437-.96875.980469-.363281.378906-.71875.765624-1.078125 1.152343-.304687.332031-.617187.664063-.917969 1-.363281.398438-.710937.8125-1.0625 1.222657-.289062.332031-.578124.660156-.859374 1-.367188.441406-.722657.890624-1.078126 1.335937-.253906.320313-.515624.632813-.761718.953125-.441406.566406-.867188 1.144531-1.292969 1.722656-.242187.332032-.484375.660156-.722656.992188-.472657.667968-.945313 1.339844-1.398438 2.019531-.21875.324219-.421875.65625-.636719.984375-.320312.496094-.644531.988281-.957031 1.492188-.226562.367187-.441406.738281-.664062 1.109374-.28125.472657-.566407.941407-.839844 1.417969-.222656.390625-.433594.785157-.652344 1.179688-.257812.46875-.515625.933593-.765625 1.398437-.210937.40625-.414062.816406-.621094 1.226563-.238281.46875-.476562.9375-.703124 1.410156-.199219.417969-.390626.835937-.585938 1.253906-.21875.476563-.4375.953125-.648438 1.433594-.1875.421875-.367187.847656-.546874 1.277344-.199219.480469-.398438.964843-.597657 1.453125-.171875.433594-.339843.867187-.5 1.300781-.1875.492187-.371093.980469-.546875 1.476563-.15625.4375-.308594.875-.457031 1.316406-.171875.5-.335937 1-.496094 1.5-.140625.441406-.277343.886718-.410156 1.332031-.152344.507813-.300781 1.015625-.441406 1.527344-.125.445312-.246094.890625-.363281 1.339843-.136719.515626-.261719 1.039063-.390626 1.558594-.105468.445313-.214843.890625-.3125 1.339844-.117187.53125-.226562 1.0625-.335937 1.601562-.089844.441407-.179687.886719-.265625 1.332032-.097656.546875-.191406 1.09375-.28125 1.644531-.074219.4375-.148438.875-.214844 1.316406-.082031.5625-.152344 1.132813-.226562 1.699219-.054688.429688-.113282.855469-.160156 1.285156-.066407.597656-.117188 1.199219-.171876 1.796875-.035156.402344-.078124.800781-.109374 1.207031-.0507818.671876-.0820318 1.347657-.11328175 2.019532-.01953125.335937.06249995.675781.05078125 1.011718-.0390625 1.011719.0468745 2.03125.0468745 3.046876v174.882812c-.0117182 24.804688 20.066407 44.933594 44.871094 44.988281h202.976563c24.863281-.039062 45.03125-20.148437 45.140625-45.011719v-174.847656c.042968-16.433594-4.769532-32.511718-13.835938-46.214844-7.96875-12.117187-19.089844-21.832031-32.164062-28.105468zm-194-95.820313h187v59h-187zm224 344.964844c-.09375 16.046875-13.117188 29.015625-29.164063 29.035156h-202.929687c-15.996094-.027343-28.9375-13.019531-28.90625-29.011719v-174.851562c-.015625-14.085938 4.386718-27.820312 12.589844-39.273438.945312-1.316406 1.886718-2.597656 2.925781-3.839843.519531-.621094 1.023437-1.472657 1.5625-2.074219 6.609375-7.292969 14.710937-13.074219 23.757812-16.949219h.070313c3.039062-.945312 5.105468-3.761719 5.09375-6.945312v-26.054688h169v26.058594c-.011719 3.28125 1.984375 6.230469 5.035156 7.441406 24.515625 9.679688 40.964844 34.453125 40.964844 61.640625zm0 0"/><path d="m228.089844 224.144531h-49v-49c0-4.417969-3.582032-8-8-8h-49c-4.417969 0-8 3.582031-8 8v49h-48c-4.417969 0-8 3.582031-8 8v46c0 4.417969 3.582031 8 8 8h48v49c0 4.417969 3.582031 8 8 8h49c4.417968 0 8-3.582031 8-8v-49h49c4.417968 0 8-3.582031 8-8v-46c0-4.417969-3.582032-8-8-8zm-8 46h-49c-4.417969 0-8 3.582031-8 8v49h-33v-49c0-4.417969-3.582032-8-8-8h-48v-30h48c4.417968 0 8-3.582031 8-8v-49h33v49c0 4.417969 3.582031 8 8 8h49zm0 0"/><path d="m460.394531 276.285156-93.941406-34.441406c-21.914063-8.042969-46.210937 3.082031-54.449219 24.921875-8.234375 21.839844 2.671875 46.234375 24.4375 54.664063-22.40625 2.53125-38.9375 22.121093-37.65625 44.636718 1.277344 22.511719 19.921875 40.105469 42.46875 40.078125h100.058594c15.027344.023438 28.945312-7.894531 36.605469-20.824219 7.660156-12.925781 7.914062-28.941406.675781-42.109374 8.761719-10.640626 11.820312-24.867188 8.203125-38.167969s-13.460937-24.019531-26.402344-28.757813zm10.273438 49.070313c-.679688 1.847656-1.566407 3.613281-2.636719 5.265625-7.554688-6.136719-16.988281-9.484375-26.71875-9.476563h-42.128906l16.242187-44.308593 39.460938 14.46875c13.75 5.058593 20.808593 20.292968 15.78125 34.050781zm-142.933594-32.414063c-4.515625-9.738281-2.71875-21.234375 4.554687-29.132812 7.269532-7.894532 18.578126-10.636719 28.65625-6.941406l39.460938 14.46875-14.023438 38.25c1.507813-4.144532-.621093-8.730469-4.761718-10.246094l-31.953125-11.714844c-2.6875-1.007812-5.710938-.496094-7.917969 1.339844-2.207031 1.835937-3.261719 4.714844-2.765625 7.542968.5 2.828126 2.476563 5.167969 5.179687 6.140626l31.949219 11.710937c1.988281.734375 4.1875.644531 6.113281-.246094 1.925782-.894531 3.414063-2.511719 4.144532-4.503906l-4.230469 11.535156h-.035156l-39.429688-14.453125c-6.617187-2.402344-11.996093-7.351562-14.941406-13.75zm-13.015625 70.703125c.019531-14.644531 11.894531-26.503906 26.535156-26.5h41.835938v40.742188c.03125-2.074219-.785156-4.070313-2.253906-5.53125-1.472657-1.460938-3.476563-2.257813-5.546876-2.210938h-34.035156c-4.417968 0-8 3.582031-8 8s3.582032 8 8 8h34.035156c4.414063-.125 7.898438-3.792969 7.800782-8.210937v12.210937h-41.835938c-14.640625 0-26.515625-11.859375-26.535156-26.5zm126.59375 26.5h-42.222656v-53h42.222656c14.632812 0 26.5 11.863281 26.5 26.5 0 14.632813-11.867188 26.5-26.5 26.5zm0 0"/></g><g transform="matrix(0.78125 0 0 0.78125 237.5 150)" id="L1_197"><g><path d="m4 61a1 1 0 0 1 -.707-1.707l9.917-9.917a1 1 0 0 1 1.414 1.415l-9.917 9.916a1 1 0 0 1 -.707.293z" fill="#93999a"/><path d="m24.302 12.698h14v40h-14z" transform="matrix(0.707 0.707 -0.707 0.707 32.289 -12.556)" fill="#aae1f9"/><path d="m27.766 38.133a8 8 0 0 1 -11.314 0l-.242-.242-4 4 9.9 9.9 28.283-28.285-4-4z" fill="#57b7eb"/><path d="m13.038 45.962h4v6h-4z" transform="matrix(0.707 0.707 -0.707 0.707 39.026 3.707)" fill="#fcbc04"/><path d="m17.938 28.062h14v22h-14z" transform="matrix(0.707 0.707 -0.707 0.707 34.925 -6.192)" fill="#f9e109"/><path d="m45.333 9.167h8v11h-8z" transform="matrix(0.707 0.707 -0.707 0.707 24.821 -30.588)" fill="#d0d8da"/><path d="m37.494 16.506h6v14h-6z" transform="matrix(0.707 0.707 -0.707 0.707 28.482 -21.749)" fill="#93999a"/><path d="m27.13 27.87h14v4h-14z" transform="matrix(0.707 0.707 -0.707 0.707 31.118 -15.385)" fill="#d0d8da"/><path d="m47.636 7.364h14v4h-14z" transform="matrix(0.707 0.707 -0.707 0.707 22.624 -35.891)" fill="#aae1f9"/><path d="m27.766 38.133a8 8 0 0 1 -11.314 0l-.242-.242-4 4 9.9 9.9 15.555-15.557-4-4z" fill="#fcbc04"/><path d="m35.029 24.213h14v1.657h-14z" transform="matrix(0.707 -0.707 0.707 0.707 -5.397 37.054)" fill="#656b76"/><path d="m33.665 32.234 4 4 2.829-2.828-2.829-2.829-1.171-1.171z" fill="#93999a"/><path d="m15.745 45.426-1.029 1.03a2.992 2.992 0 0 1 -.264 3.92l-1.121 1.124 1 1 4.243-4.242z" fill="#e59730"/><path d="m56.05 10.607-6.278-6.279-1.5 1.5 9.9 9.9 2.828-2.828-1.657-1.656a3 3 0 0 1 -3.293-.637z" fill="#57b7eb"/><path d="m50.393 7.95-2 2 .829.828a4 4 0 0 1 0 5.657l-2.95 2.95 2 2 7.778-7.778z" fill="#93999a"/><g fill="#57b7eb"><path d="m18.57 42.6a1 1 0 0 1 -1.41 0l-2.83-2.83 1.41-1.41h.01l2.82 2.82a1.008 1.008 0 0 1 0 1.42z"/><path d="m22.82 41.18a.99.99 0 0 1 -1.42 0l-4.24-4.24 1.41-1.41 4.25 4.24a1 1 0 0 1 0 1.41z"/><path d="m24.23 36.94a1 1 0 0 1 -1.41 0l-2.83-2.83 1.41-1.41 2.83 2.83a1 1 0 0 1 0 1.41z"/><path d="m28.47 35.53a1 1 0 0 1 -1.41 0l-4.24-4.25 1.41-1.41 4.24 4.24a1.008 1.008 0 0 1 0 1.42z"/></g><path d="m22.82 41.18a.99.99 0 0 1 -1.42 0l-4.24-4.24 1.41-1.41 4.25 4.24a1 1 0 0 1 0 1.41z" fill="#aae1f9"/><path d="m28.47 35.53a1 1 0 0 1 -1.41 0l-4.24-4.25 1.41-1.41 4.24 4.24a1.008 1.008 0 0 1 0 1.42z" fill="#aae1f9"/><path d="m18.57 42.6a1 1 0 0 1 -1.41 0l-2.83-2.83 1.41-1.41h.01l2.82 2.82a1.008 1.008 0 0 1 0 1.42z" fill="#57b7eb"/><path d="m24.23 36.94a1 1 0 0 1 -1.41 0l-2.83-2.83 1.41-1.41 2.83 2.83a1 1 0 0 1 0 1.41z" fill="#aae1f9"/><path d="m20.54 40.32.86.86a.992.992 0 0 0 1.7-.772 8.054 8.054 0 0 1 -2.56-.088z" fill="#57b7eb"/></g><g><path d="m58 41.5v-.5h-10v.5a7.5 7.5 0 0 1 -1.5 4.5 7.5 7.5 0 0 0 -1.5 4.5v10.5h16v-10.5a7.5 7.5 0 0 0 -1.5-4.5 7.5 7.5 0 0 1 -1.5-4.5z" fill="#aae1f9"/><path d="m55.5 58a7.5 7.5 0 0 1 -7.426-8.568 7.618 7.618 0 0 1 1.451-3.466l.025-.033a6.974 6.974 0 0 1 5.611-2.933h3.009a7.455 7.455 0 0 1 -.17-1.5v-.5h-10v.5a7.5 7.5 0 0 1 -1.5 4.5 7.5 7.5 0 0 0 -1.5 4.5v10.5h16v-3z" fill="#57b7eb"/><path d="m46 35h14v6h-14z" fill="#f9e109"/><path d="m45.439 48a7.487 7.487 0 0 0 -.439 2.5v10.5h16v-10.5a7.487 7.487 0 0 0 -.439-2.5z" fill="#f9e109"/><path d="m55.5 58a7.5 7.5 0 0 1 -7.426-8.568 7.079 7.079 0 0 1 .371-1.432h-3.006a7.487 7.487 0 0 0 -.439 2.5v10.5h16v-3z" fill="#fcbc04"/><path d="m52 38a3.992 3.992 0 0 1 -3.859-3h-2.141v6h14v-3z" fill="#fcbc04"/><g fill="#a1d51c"><path d="m53 57a1 1 0 0 1 -1-1v-4a1 1 0 0 1 2 0v4a1 1 0 0 1 -1 1z"/><path d="m55 55h-4a1 1 0 0 1 0-2h4a1 1 0 0 1 0 2z"/></g></g></g><g transform="matrix(0.09765625 0 0 0.09765625 150 325)" id="L1_198"><path d="M32,464H480a16.019,16.019,0,0,0,16-16V232A120.136,120.136,0,0,0,376,112h-8V80a32.036,32.036,0,0,0-32-32H176a32.036,32.036,0,0,0-32,32v32h-8A120.136,120.136,0,0,0,16,232V448A16.019,16.019,0,0,0,32,464Zm112-16H112V416h32Zm208,0H160V416H352Zm48,0H368V416h32Zm0-160V400H112V288a7.984,7.984,0,0,0-.325-2.257L86.456,200H144v48a8,8,0,0,0,8,8H360a8,8,0,0,0,8-8V200h57.544l-25.219,85.743A7.984,7.984,0,0,0,400,288ZM272,176H240a8,8,0,0,0-8,8v18.251l-72-16.615V184a24.028,24.028,0,0,1,24-24H328a24.028,24.028,0,0,1,24,24v1.636l-72,16.615V184A8,8,0,0,0,272,176Zm-8,16v13.943l-8,1.847-8-1.847V192ZM254.2,223.8a8,8,0,0,0,3.6,0L352,202.056V240H160V202.056ZM480,448H416V416h64Zm0-48H416V336.646l27,21.6a8,8,0,0,0,10,0l27-21.6Zm0-83.845-32,25.6-32-25.6V296h64ZM480,232v48H418.692l34.57-117.54A103.585,103.585,0,0,1,480,232ZM312,64h24a16.019,16.019,0,0,1,16,16v32H336V88a8,8,0,0,0-8-8H312Zm8,32v16H192V96ZM216,64h80V80H216ZM160,80a16.019,16.019,0,0,1,16-16h24V80H184a8,8,0,0,0-8,8v24H160Zm-24,48H376a103.489,103.489,0,0,1,64.184,22.222L430.25,184H368a40.045,40.045,0,0,0-40-40H184a40.045,40.045,0,0,0-40,40H81.75l-9.934-33.778A103.489,103.489,0,0,1,136,128ZM32,232a103.585,103.585,0,0,1,26.738-69.54L93.308,280H32Zm0,64H96v20.155l-32,25.6-32-25.6Zm0,40.646,27,21.6a8,8,0,0,0,10,0l27-21.6V400H32ZM32,416H96v32H32Z"/><path d="M304,304H280V280a8,8,0,0,0-8-8H240a8,8,0,0,0-8,8v24H208a8,8,0,0,0-8,8v32a8,8,0,0,0,8,8h24v24a8,8,0,0,0,8,8h32a8,8,0,0,0,8-8V352h24a8,8,0,0,0,8-8V312A8,8,0,0,0,304,304Zm-8,32H272a8,8,0,0,0-8,8v24H248V344a8,8,0,0,0-8-8H216V320h24a8,8,0,0,0,8-8V288h16v24a8,8,0,0,0,8,8h24Z"/></g><g transform="matrix(0.15577010810375214 0 0 0.15577010810375214 191 213)" id="L1_199"><path d="M346.522,146.375H304.17l29.946-29.946c15.1-15.1,15.1-39.58,0-54.679l-10.682-10.682     c-15.099-15.1-39.579-15.1-54.679,0l-29.946,29.946v-42.35C238.809,17.31,221.499,0,200.145,0h-15.106     c-21.354,0-38.663,17.311-38.663,38.664v42.352l-29.948-29.947c-15.1-15.1-39.579-15.1-54.678,0L51.069,61.751     c-15.1,15.099-15.101,39.578-0.001,54.677l29.947,29.948h-42.35c-21.354,0-38.664,17.31-38.664,38.664v15.104     c0,21.354,17.309,38.663,38.664,38.663h42.35l-29.947,29.948c-15.1,15.1-15.099,39.578,0,54.677l10.682,10.681     c15.099,15.101,39.578,15.102,54.678,0.002l29.947-29.947v42.351c0,21.355,17.309,38.664,38.663,38.664h15.106     c21.354,0,38.664-17.309,38.664-38.664v-42.35l29.945,29.944c15.099,15.101,39.58,15.101,54.679,0l10.681-10.681     c15.1-15.099,15.1-39.578,0-54.679l-29.945-29.946h42.352c21.354,0,38.663-17.309,38.663-38.663V185.04     C385.185,163.684,367.876,146.375,346.522,146.375z M265.164,162.762c0,0-8.233,8.538-21.649,2.562c0,0-6.891,6.273-17.989,0.541     c0,0-8.232,6.274-16.953,0.862c0,0-5.16,3.46-9.486,2.904v31.44c0.231-0.032,0.478-0.066,0.695-0.096     c1.966-0.426,9.349-2.087,18.243-4.551c9.695-2.57,20.367-6.725,21.954-8.843c-0.123-0.122-0.367-0.251-0.611-0.374     c-0.914-0.488-2.377-0.906-4.147-1.28c-3.536-0.731-8.354-1.099-13.232-1.28c-9.698-0.358-10.07,0.035-11.587,0.061     c-2.596,0.043-7.216-0.988-7.135-4.992c0.081-4.005,3.328-5.328,5.84-5.337c2.512-0.01,1.845,0.022,7.211,0.092     c8.902,0.67,36.162-1.532,39.577,12.799c0,0.419,0.061,0.67,0.121,1.044c-1.157,12.486-27.075,17.929-45.796,21.634     c6.342,4.406,9.757,10.077,11.097,17.396c0.672,7.805-5.549,15.245-19.956,23.523c10.93,7.745,18.128,15.063,17.517,23.859     c-0.975,7.196-7.317,16.77-19.758,22.807c-0.06,0-0.12,0-0.12,0s8.72-13.293,9.269-20.566c0.498-3.69-2.331-10.42-9.181-15.763     v25.974c0,3.488-2.824,6.315-6.308,6.315c-3.483,0-6.309-2.828-6.309-6.315c0-0.095,0.01-0.186,0.014-0.278v-26.817     c-0.642,0.436-1.282,0.942-1.917,1.541c-7.583,6.304-9.399,11.611-8.864,15.344c0.549,7.273,9.269,20.566,9.269,20.566h-0.06     c0,0,0,0-0.061,0c-12.44-6.037-18.782-15.61-19.758-22.807c-0.61-8.797,6.586-16.114,17.563-23.859     c-14.454-8.278-20.673-15.719-20.002-23.523c1.341-7.38,4.756-13.051,11.098-17.396c-18.721-3.705-44.639-9.147-45.797-21.634     c0.062-0.374,0.122-0.625,0.122-1.044c3.415-14.331,30.675-12.129,39.577-12.799c5.366-0.069,3.679-0.237,7.642,0.304     c2.5,0.504,5.69,0.831,5.505,5.312c-0.185,4.479-6.079,4.553-7.231,4.622c-1.153,0.068-1.89-0.419-11.586-0.121     c-4.878,0.242-9.697,0.609-13.295,1.341c-1.707,0.374-3.232,0.792-4.084,1.28c-0.306,0.123-0.488,0.252-0.611,0.374     c1.587,2.118,12.258,6.272,21.954,8.843c10.125,2.805,14.86,3.777,19.698,4.878c0.275,0.063,0.561,0.097,0.841,0.146v-31.982     c-5.578,0.57-9.866-2.74-9.866-2.74c-8.782,5.412-16.953-0.862-16.953-0.862c-11.099,5.732-18.051-0.541-18.051-0.541     c-13.354,5.977-21.587-2.562-21.587-2.562c-15.427,2.805-21.1-10.009-21.1-10.009c28.541,2.562,51.958-25.43,57.934-30.3     c5.854-4.825,10.001-3.721,15.916,6.883c3.819,6.811,9.852,7.763,13.709,7.622v-0.483c-4.654-2.342-7.854-7.148-7.854-12.714     c0-7.862,6.374-14.236,14.236-14.236s14.236,6.374,14.236,14.236c0,5.629-3.274,10.48-8.016,12.791v0.418     c3.864,0.062,9.634-1.045,13.329-7.634c5.914-10.604,10.001-11.708,15.916-6.883c5.976,4.87,29.394,32.861,57.933,30.3     C286.264,152.754,280.591,165.567,265.164,162.762z" fill="#e74424"/><path d="M175.148,228.348c0,2.817,1.531,6.142,4.824,8.69c2.577,1.995,4.119,2.608,6.512,4.109v-25.332     C174.361,220.571,175.148,225.6,175.148,228.348z" fill="#e74424"/><path d="M199.086,240.513c1.63-0.934,3.325-2.122,4.912-3.475c3.169-2.7,4.839-5.526,4.839-8.212     c0-2.555,0.688-7.664-9.751-12.317L199.086,240.513L199.086,240.513z" fill="#e74424"/><path d="M228.331,122.454c-5.915-4.825-10.001-3.721-15.916,6.883c-3.695,6.589-9.465,7.695-13.329,7.634     v-0.418c4.741-2.311,8.016-7.162,8.016-12.791c0-7.862-6.374-14.236-14.236-14.236s-14.236,6.374-14.236,14.236     c0,5.565,3.2,10.372,7.854,12.714v0.483c-3.857,0.141-9.89-0.812-13.709-7.622c-5.914-10.604-10.061-11.708-15.916-6.883     c-5.976,4.87-29.393,32.861-57.934,30.3c0,0,5.673,12.813,21.1,10.009c0,0,8.233,8.538,21.587,2.562     c0,0,6.952,6.273,18.051,0.541c0,0,8.171,6.274,16.953,0.862c0,0,4.289,3.311,9.866,2.74v31.982     c-0.28-0.05-0.565-0.084-0.841-0.146c-4.837-1.101-9.573-2.073-19.698-4.878c-9.696-2.57-20.367-6.725-21.954-8.843     c0.124-0.122,0.306-0.251,0.611-0.374c0.853-0.488,2.378-0.906,4.084-1.28c3.598-0.731,8.417-1.099,13.295-1.341     c9.697-0.298,10.434,0.189,11.586,0.121c1.152-0.069,7.046-0.143,7.231-4.622c0.185-4.48-3.005-4.808-5.505-5.312     c-3.962-0.541-2.276-0.373-7.642-0.304c-8.902,0.67-36.162-1.532-39.577,12.799c0,0.419-0.06,0.67-0.122,1.044     c1.158,12.486,27.076,17.929,45.797,21.634c-6.342,4.345-9.757,10.016-11.098,17.396c-0.671,7.805,5.549,15.245,20.002,23.523     c-10.977,7.745-18.173,15.063-17.563,23.859c0.976,7.196,7.318,16.77,19.758,22.807c0.061,0,0.061,0,0.061,0h0.06     c0,0-8.719-13.293-9.269-20.566c-0.535-3.732,1.281-9.04,8.864-15.344c0.635-0.599,1.275-1.105,1.917-1.541v26.817     c-0.004,0.093-0.014,0.184-0.014,0.278c0,3.487,2.825,6.315,6.309,6.315s6.308-2.827,6.308-6.315v-25.973     c6.85,5.343,9.679,12.072,9.181,15.763c-0.549,7.273-9.269,20.566-9.269,20.566s0.06,0,0.12,0     c12.441-6.037,18.783-15.61,19.758-22.807c0.612-8.797-6.586-16.114-17.517-23.859c14.407-8.278,20.628-15.719,19.956-23.523     c-1.34-7.318-4.755-12.989-11.097-17.396c18.721-3.705,44.639-9.147,45.796-21.634c-0.061-0.374-0.121-0.625-0.121-1.044     c-3.415-14.331-30.675-12.129-39.577-12.799c-5.367-0.069-4.7-0.102-7.211-0.092c-2.513,0.009-5.759,1.332-5.84,5.337     c-0.081,4.004,4.539,5.035,7.135,4.992c1.518-0.025,1.89-0.419,11.587-0.061c4.878,0.182,9.696,0.549,13.232,1.28     c1.77,0.374,3.233,0.792,4.147,1.28c0.244,0.123,0.488,0.252,0.611,0.374c-1.587,2.118-12.258,6.272-21.954,8.843     c-8.895,2.464-16.277,4.125-18.243,4.551c-0.218,0.029-0.464,0.063-0.695,0.096v-31.44c4.326,0.556,9.486-2.904,9.486-2.904     c8.721,5.412,16.953-0.862,16.953-0.862c11.098,5.732,17.989-0.541,17.989-0.541c13.417,5.977,21.649-2.562,21.649-2.562     c15.427,2.805,21.1-10.009,21.1-10.009C257.724,155.315,234.307,127.324,228.331,122.454z M186.484,241.148     c-2.393-1.501-3.935-2.114-6.512-4.109c-3.293-2.549-4.824-5.873-4.824-8.69c0-2.748-0.787-7.777,11.336-12.532V241.148z      M208.837,228.827c0,2.686-1.67,5.512-4.839,8.212c-1.587,1.353-3.282,2.541-4.912,3.475V216.51     C209.526,221.163,208.837,226.272,208.837,228.827z" fill="#f7f1e6"/></g><g transform="matrix(0.1271084100008011 0 0 0.1271084100008011 121 73)" id="L1_200"><circle cx="236" cy="48" r="48" fill="#b3ebff"/><path d="M85.957,173.991c18.599,18.387,18.771,48.37,0.384,66.968c-0.127,0.129-0.255,0.257-0.384,0.384  c-18.802,18.602-49.074,18.602-67.875,0c-18.599-18.387-18.77-48.37-0.384-66.968c0.127-0.129,0.255-0.256,0.384-0.384  C36.883,155.389,67.155,155.389,85.957,173.991L85.957,173.991z" fill="#f77c6a"/><g><path d="M275.568,20.864l-66.724,66.724c21.832,15.019,51.705,9.496,66.724-12.336   C286.836,58.873,286.836,37.242,275.568,20.864z" fill="#8ce2ff"/><path d="M264.308,9.499l10.95,10.95C260.062-1.246,230.157-6.514,208.462,8.682S181.5,53.783,196.695,75.477   c0.224,0.32,0.452,0.637,0.684,0.951L264.308,9.499z" fill="#8ce2ff"/></g><path d="M284.019,128.038h-96c-17.673,0-32,14.327-32,32s14.327,32,32,32h96c17.673,0,32-14.327,32-32  S301.692,128.038,284.019,128.038z" fill="#ede3e3"/><path d="M284.019,128.038h-48v64h48c17.673,0,32-14.327,32-32S301.692,128.038,284.019,128.038z" fill="#27ae60"/><path d="M458.647,9.41c-12.497-12.496-32.758-12.496-45.255,0L345.51,77.293  c-12.442,12.552-12.352,32.813,0.199,45.254c12.474,12.364,32.581,12.364,45.055,0l67.882-67.882  C471.143,42.168,471.143,21.907,458.647,9.41L458.647,9.41z" fill="#ede3e3"/><g><path d="M413.392,9.41l-33.941,33.941l45.255,45.255l33.941-33.941c12.497-12.497,12.497-32.758,0-45.255   C446.15-3.087,425.889-3.087,413.392,9.41z" fill="#fd614b"/><path d="M44.769,160.773h14.954c-15.197-2.522-30.682,2.393-41.642,13.218   c-18.599,18.431-18.735,48.45-0.304,67.048c7.277,7.344,16.756,12.107,26.991,13.565V160.773z" fill="#fd614b"/><path d="M85.957,173.991c-6.874-6.822-15.657-11.396-25.188-13.119v93.589   c9.53-1.722,18.313-6.297,25.188-13.119c18.599-18.387,18.77-48.37,0.383-66.969C86.213,174.246,86.085,174.118,85.957,173.991z" fill="#fd614b"/></g><path d="M126.528,77.292L58.646,9.41c-12.497-12.497-32.758-12.497-45.255,0s-12.497,32.758,0,45.255  l67.882,67.882c12.497,12.497,32.758,12.497,45.255,0S139.025,89.789,126.528,77.292L126.528,77.292z" fill="#ede3e3"/><path d="M13.391,54.665l33.941,33.941l45.255-45.255L58.646,9.41c-12.497-12.497-32.758-12.497-45.255,0  S0.894,42.168,13.391,54.665z" fill="#fecd0d"/><path d="M446.909,195.372c-10.733-6.44-24.597-3.724-32.107,6.289l-44.881,59.841  c-8.917,11.889-22.105,19.848-36.78,22.196l-153.122,20.34l105.386-42.317c7.074-2.593,11.696-9.421,11.475-16.952  c-0.47-9.406-8.476-16.65-17.882-16.179c-1.41,0.07-2.805,0.316-4.154,0.73l-140.055,43.07  c-17.139,4.897-31.632,16.402-40.289,31.984l-26.48,47.664l-40,120h120l6.018-48.147c1.211-9.687,7.877-17.819,17.138-20.906  l203.458-67.819c13.743-4.581,25.241-14.199,32.179-26.917l48.375-79.202c7.031-11.512,3.399-26.545-8.113-33.576  C447.019,195.438,446.964,195.405,446.909,195.372L446.909,195.372z" fill="#efcb9a"/></g></defs><g fi:class="KUsePattern"><pattern id="pattern_L1_195" width="350" height="350" patternUnits="userSpaceOnUse"><use xlink:href="#L1_195" x="-350" y="-350"/><use xlink:href="#L1_195" x="0" y="-350"/><use xlink:href="#L1_195" x="350" y="-350"/><use xlink:href="#L1_195" x="-350" y="0"/><use xlink:href="#L1_195" x="0" y="0"/><use xlink:href="#L1_195" x="350" y="0"/><use xlink:href="#L1_195" x="-350" y="350"/><use xlink:href="#L1_195" x="0" y="350"/><use xlink:href="#L1_195" x="350" y="350"/></pattern><rect x="0" y="0" width="100%" height="100%" fill="url(#pattern_L1_195)"/></g><g fi:class="KUsePattern"><pattern id="pattern_L1_196" width="350" height="350" patternUnits="userSpaceOnUse"><use xlink:href="#L1_196" x="-350" y="-350"/><use xlink:href="#L1_196" x="0" y="-350"/><use xlink:href="#L1_196" x="350" y="-350"/><use xlink:href="#L1_196" x="-350" y="0"/><use xlink:href="#L1_196" x="0" y="0"/><use xlink:href="#L1_196" x="350" y="0"/><use xlink:href="#L1_196" x="-350" y="350"/><use xlink:href="#L1_196" x="0" y="350"/><use xlink:href="#L1_196" x="350" y="350"/></pattern><rect x="0" y="0" width="100%" height="100%" fill="url(#pattern_L1_196)"/></g><g fi:class="KUsePattern"><pattern id="pattern_L1_197" width="350" height="350" patternUnits="userSpaceOnUse"><use xlink:href="#L1_197" x="-350" y="-350"/><use xlink:href="#L1_197" x="0" y="-350"/><use xlink:href="#L1_197" x="350" y="-350"/><use xlink:href="#L1_197" x="-350" y="0"/><use xlink:href="#L1_197" x="0" y="0"/><use xlink:href="#L1_197" x="350" y="0"/><use xlink:href="#L1_197" x="-350" y="350"/><use xlink:href="#L1_197" x="0" y="350"/><use xlink:href="#L1_197" x="350" y="350"/></pattern><rect x="0" y="0" width="100%" height="100%" fill="url(#pattern_L1_197)"/></g><g fi:class="KUsePattern"><pattern id="pattern_L1_198" width="350" height="350" patternUnits="userSpaceOnUse"><use xlink:href="#L1_198" x="-350" y="-350"/><use xlink:href="#L1_198" x="0" y="-350"/><use xlink:href="#L1_198" x="350" y="-350"/><use xlink:href="#L1_198" x="-350" y="0"/><use xlink:href="#L1_198" x="0" y="0"/><use xlink:href="#L1_198" x="350" y="0"/><use xlink:href="#L1_198" x="-350" y="350"/><use xlink:href="#L1_198" x="0" y="350"/><use xlink:href="#L1_198" x="350" y="350"/></pattern><rect x="0" y="0" width="100%" height="100%" fill="url(#pattern_L1_198)"/></g><g fi:class="KUsePattern"><pattern id="pattern_L1_199" width="350" height="350" patternUnits="userSpaceOnUse"><use xlink:href="#L1_199" x="-350" y="-350"/><use xlink:href="#L1_199" x="0" y="-350"/><use xlink:href="#L1_199" x="350" y="-350"/><use xlink:href="#L1_199" x="-350" y="0"/><use xlink:href="#L1_199" x="0" y="0"/><use xlink:href="#L1_199" x="350" y="0"/><use xlink:href="#L1_199" x="-350" y="350"/><use xlink:href="#L1_199" x="0" y="350"/><use xlink:href="#L1_199" x="350" y="350"/></pattern><rect x="0" y="0" width="100%" height="100%" fill="url(#pattern_L1_199)"/></g><g fi:class="KUsePattern"><pattern id="pattern_L1_200" width="350" height="350" patternUnits="userSpaceOnUse"><use xlink:href="#L1_200" x="-350" y="-350"/><use xlink:href="#L1_200" x="0" y="-350"/><use xlink:href="#L1_200" x="350" y="-350"/><use xlink:href="#L1_200" x="-350" y="0"/><use xlink:href="#L1_200" x="0" y="0"/><use xlink:href="#L1_200" x="350" y="0"/><use xlink:href="#L1_200" x="-350" y="350"/><use xlink:href="#L1_200" x="0" y="350"/><use xlink:href="#L1_200" x="350" y="350"/></pattern><rect x="0" y="0" width="100%" height="100%" fill="url(#pattern_L1_200)"/></g></svg>