<svg height="512pt" viewBox="0 -17 512 512" width="512pt" xmlns="http://www.w3.org/2000/svg"><g fill="#82cd64"><path d="m132.664062 286.234375c-3.835937-2.539063-9-1.488281-11.539062 2.34375l-72.320312 109.265625c-2.539063 3.835938-1.488282 9 2.347656 11.535156 1.414062.9375 3.007812 1.386719 4.585937 1.386719 2.699219 0 5.347657-1.3125 6.949219-3.730469l72.320312-109.265625c2.539063-3.832031 1.488282-9-2.34375-11.535156zm0 0"/><path d="m297.261719 350.539062-128.515625-76.484374c-3.953125-2.351563-9.0625-1.054688-11.410156 2.894531-2.351563 3.953125-1.058594 9.0625 2.894531 11.414062l128.515625 76.484375c1.335937.792969 2.800781 1.171875 4.246094 1.171875 2.839843 0 5.605468-1.453125 7.164062-4.070312 2.351562-3.949219 1.054688-9.058594-2.894531-11.410157zm0 0"/><path d="m413.464844 259.300781c-3.1875-3.308593-8.460938-3.40625-11.769532-.21875l-85.332031 82.207031c-3.308593 3.191407-3.410156 8.460938-.21875 11.773438 1.632813 1.695312 3.8125 2.550781 5.996094 2.550781 2.078125 0 4.160156-.773437 5.773437-2.332031l85.332032-82.207031c3.3125-3.191407 3.410156-8.460938.21875-11.773438zm0 0"/></g><path d="m77.597656 438.777344c0 16.140625-9.855468 29.980468-23.882812 35.828125-4.585938 1.914062-9.636719 2.976562-14.921875 2.976562-21.425781 0-38.792969-17.378906-38.792969-38.804687 0-21.425782 17.367188-38.804688 38.792969-38.804688 5.285156 0 10.335937 1.0625 14.921875 2.976563 14.027344 5.847656 23.882812 19.6875 23.882812 35.828125zm0 0" fill="#5db33a"/><path d="m176.457031 283.808594c0 16.140625-9.855469 29.980468-23.882812 35.828125-4.589844 1.914062-9.636719 2.976562-14.921875 2.976562-21.425782 0-38.792969-17.378906-38.792969-38.804687 0-21.425782 17.367187-38.804688 38.792969-38.804688 5.285156 0 10.332031 1.0625 14.921875 2.976563 14.027343 5.847656 23.882812 19.6875 23.882812 35.828125zm0 0" fill="#5db33a"/><path d="m341.910156 355.527344c0 16.140625-9.851562 29.980468-23.878906 35.828125-4.589844 1.914062-9.636719 2.976562-14.921875 2.976562-21.429687 0-38.796875-17.378906-38.796875-38.804687 0-21.425782 17.367188-38.804688 38.796875-38.804688 5.285156 0 10.332031 1.0625 14.921875 2.976563 14.027344 5.847656 23.878906 19.6875 23.878906 35.828125zm0 0" fill="#5db33a"/><path d="m77.597656 438.777344c0 16.140625-9.855468 29.980468-23.882812 35.828125-14.027344-5.839844-23.890625-19.6875-23.890625-35.828125s9.863281-29.992188 23.890625-35.828125c14.027344 5.847656 23.882812 19.6875 23.882812 35.828125zm0 0" fill="#6dc54a"/><path d="m176.457031 283.808594c0 16.140625-9.855469 29.980468-23.882812 35.828125-14.027344-5.835938-23.894531-19.6875-23.894531-35.828125s9.867187-29.988282 23.894531-35.828125c14.027343 5.847656 23.882812 19.6875 23.882812 35.828125zm0 0" fill="#6dc54a"/><path d="m341.910156 355.527344c0 16.140625-9.851562 29.980468-23.878906 35.828125-14.027344-5.835938-23.894531-19.6875-23.894531-35.828125s9.867187-29.988282 23.894531-35.828125c14.027344 5.847656 23.878906 19.6875 23.878906 35.828125zm0 0" fill="#6dc54a"/><path d="m512 103.503906c0 36.414063-18.816406 68.433594-47.253906 86.867188-4.285156 2.777344-7.859375 6.515625-10.378906 10.957031l-31.871094 56.308594-5.28125 9.324219c-.082032.148437-.164063.289062-.257813.421874-3.976562 6.316407-13.351562 6.175782-17.089843-.421874l-37.152344-65.632813c-2.511719-4.441406-6.082032-8.171875-10.359375-10.941406-28.84375-18.691407-47.792969-51.355469-47.253907-88.40625.886719-61.960938 56.542969-109.539063 117.429688-100.984375 50.519531 6.820312 89.46875 50.121094 89.46875 102.507812zm0 0" fill="#5db33a"/><path d="m512 103.503906c0 36.414063-18.816406 68.433594-47.253906 86.867188-4.285156 2.777344-7.859375 6.515625-10.378906 10.957031l-31.871094 56.308594-31.878906-56.308594c-2.511719-4.441406-6.082032-8.171875-10.359376-10.941406-28.847656-18.691407-47.796874-51.355469-47.257812-88.40625.738281-51.492188 39.648438-94.214844 89.53125-100.984375 50.519531 6.820312 89.46875 50.121094 89.46875 102.507812zm0 0" fill="#82cd64"/><path d="m476.984375 103.433594c0 34.175781-24.835937 62.542968-57.425781 68.054687-3.773438.640625-7.652344.976563-11.605469.976563-38.117187 0-69.023437-30.902344-69.023437-69.03125 0-42.804688 38.617187-75.253906 80.632812-68.039063 32.59375 5.511719 57.421875 33.878907 57.421875 68.039063zm0 0" fill="#498d2d"/><path d="m476.984375 103.433594c0 34.175781-24.835937 62.542968-57.425781 68.054687-32.59375-5.519531-57.421875-33.886719-57.421875-68.054687 0-34.160156 24.828125-62.527344 57.425781-68.039063 32.59375 5.511719 57.421875 33.878907 57.421875 68.039063zm0 0" fill="#5ca33b"/></svg>