<svg height="512" viewBox="0 0 64 64" width="512" xmlns="http://www.w3.org/2000/svg" xmlns:xlink="http://www.w3.org/1999/xlink"><linearGradient id="New_Gradient_Swatch" gradientUnits="userSpaceOnUse" x1="9" x2="9" y1="64.724" y2="-.26"><stop offset="0" stop-color="#e93e3a"/><stop offset=".35" stop-color="#ed683c"/><stop offset=".7" stop-color="#f3903f"/><stop offset="1" stop-color="#fdc70c"/></linearGradient><linearGradient id="New_Gradient_Swatch-2" x1="13" x2="13" xlink:href="#New_Gradient_Swatch" y1="64.724" y2="-.26"/><linearGradient id="New_Gradient_Swatch-3" x1="17" x2="17" xlink:href="#New_Gradient_Swatch" y1="64.724" y2="-.26"/><linearGradient id="New_Gradient_Swatch-4" x1="15" x2="15" xlink:href="#New_Gradient_Swatch" y1="64.724" y2="-.26"/><linearGradient id="New_Gradient_Swatch-5" x1="21" x2="21" xlink:href="#New_Gradient_Swatch" y1="64.724" y2="-.26"/><linearGradient id="New_Gradient_Swatch-6" x1="25" x2="25" xlink:href="#New_Gradient_Swatch" y1="64.724" y2="-.26"/><linearGradient id="New_Gradient_Swatch-7" x1="29" x2="29" xlink:href="#New_Gradient_Swatch" y1="64.724" y2="-.26"/><linearGradient id="New_Gradient_Swatch-8" x1="59" x2="59" xlink:href="#New_Gradient_Swatch" y1="64.724" y2="-.26"/><linearGradient id="New_Gradient_Swatch-12" x1="39" x2="39" xlink:href="#New_Gradient_Swatch" y1="64.724" y2="-.26"/><linearGradient id="New_Gradient_Swatch-13" x1="32.106" x2="32.106" xlink:href="#New_Gradient_Swatch" y1="64.724" y2="-.26"/><linearGradient id="New_Gradient_Swatch-15" x1="28" x2="28" xlink:href="#New_Gradient_Swatch" y1="64.724" y2="-.26"/><linearGradient id="New_Gradient_Swatch-16" x1="40" x2="40" xlink:href="#New_Gradient_Swatch" y1="64.724" y2="-.26"/><linearGradient id="New_Gradient_Swatch-17" x1="37" x2="37" xlink:href="#New_Gradient_Swatch" y1="64.724" y2="-.26"/><linearGradient id="New_Gradient_Swatch-18" x1="31" x2="31" xlink:href="#New_Gradient_Swatch" y1="64.724" y2="-.26"/><linearGradient id="New_Gradient_Swatch-19" x1="43" x2="43" xlink:href="#New_Gradient_Swatch" y1="64.724" y2="-.26"/><path d="m8 6h2v2h-2z" fill="url(#New_Gradient_Swatch)"/><path d="m12 6h2v2h-2z" fill="url(#New_Gradient_Swatch-2)"/><path d="m16 6h2v2h-2z" fill="url(#New_Gradient_Swatch-3)"/><path d="m16 56h-2v2h-2v2h2v2h2v-2h2v-2h-2z" fill="url(#New_Gradient_Swatch-4)"/><path d="m20 58h2v2h-2z" fill="url(#New_Gradient_Swatch-5)"/><path d="m24 58h2v2h-2z" fill="url(#New_Gradient_Swatch-6)"/><path d="m28 58h2v2h-2z" fill="url(#New_Gradient_Swatch-7)"/><path d="m58 18h2v-2h2v-2h-2v-2h-2v2h-2v2h2z" fill="url(#New_Gradient_Swatch-8)"/><path d="m58 20h2v2h-2z" fill="url(#New_Gradient_Swatch-8)"/><path d="m58 24h2v2h-2z" fill="url(#New_Gradient_Swatch-8)"/><path d="m58 28h2v2h-2z" fill="url(#New_Gradient_Swatch-8)"/><path d="m33.343 33.343a8 8 0 1 0 11.314 0 8.01 8.01 0 0 0 -11.314 0zm9.9 9.9a6 6 0 1 1 0-8.486 6.01 6.01 0 0 1 0 8.486z" fill="url(#New_Gradient_Swatch-12)"/><path d="m61.627 55.971-7.627-7.627v-43.344a3 3 0 0 0 -3-3h-46a3 3 0 0 0 -3 3v46a3 3 0 0 0 3 3h43.343l7.628 7.627a2 2 0 0 0 2.828 0l2.828-2.827a2 2 0 0 0 0-2.829zm-56.627-51.971h46a1 1 0 0 1 1 1v5.032h-48v-5.032a1 1 0 0 1 1-1zm-1 47v-38.968h48v34.515a1.015 1.015 0 0 0 -.979.231l-1.694-1.693a12.015 12.015 0 1 0 -4.242 4.242l1.693 1.694a.988.988 0 0 0 -.24.979h-41.538a1 1 0 0 1 -1-1zm44.192-1.393-1.45-1.45c.253-.215.505-.433.743-.672s.457-.489.672-.743l1.45 1.45zm-2.121-3.536a10 10 0 1 1 0-14.142 10.011 10.011 0 0 1 0 14.142zm5.657 2.829 1.414 1.415-2.828 2.828-1.414-1.415zm8.485 8.486-2.828 2.828-5.657-5.657 2.828-2.828 5.658 5.656z" fill="url(#New_Gradient_Swatch-13)"/><path d="m21 16h-12a1 1 0 0 0 -1 1v10a1 1 0 0 0 1 1h12a1 1 0 0 0 1-1v-10a1 1 0 0 0 -1-1zm-1 10h-10v-8h10z" fill="url(#New_Gradient_Swatch-4)"/><path d="m26 16h4v2h-4z" fill="url(#New_Gradient_Swatch-15)"/><path d="m32 16h16v2h-16z" fill="url(#New_Gradient_Swatch-16)"/><path d="m26 20h22v2h-22z" fill="url(#New_Gradient_Swatch-17)"/><path d="m26 24h10v2h-10z" fill="url(#New_Gradient_Swatch-18)"/><path d="m38 24h10v2h-10z" fill="url(#New_Gradient_Swatch-19)"/><g fill="url(#New_Gradient_Swatch-4)"><path d="m8 32h14v2h-14z"/><path d="m8 36h14v2h-14z"/><path d="m8 40h14v2h-14z"/><path d="m8 44h14v2h-14z"/></g></svg>